<mxfile host="app.diagrams.net" agent="Mozilla/5.0 (Windows NT 10.0; Win64; x64) AppleWebKit/537.36 (KHTML, like Gecko) Chrome/127.0.0.0 Safari/537.36" version="24.7.17">
  <diagram name="Page-1" id="facMIZFtIj-QPxJdtZ0v">
    <mxGraphModel dx="874" dy="508" grid="1" gridSize="10" guides="1" tooltips="1" connect="1" arrows="1" fold="1" page="1" pageScale="1" pageWidth="850" pageHeight="1100" math="0" shadow="0">
      <root>
        <mxCell id="0" />
        <mxCell id="1" parent="0" />
        <mxCell id="IPL-HtfXfqppJHySGtCR-2" value="" style="rounded=1;whiteSpace=wrap;html=1;fillColor=none;strokeColor=#969696;arcSize=6;" vertex="1" parent="1">
          <mxGeometry x="230" y="50" width="680" height="460" as="geometry" />
        </mxCell>
        <mxCell id="IPL-HtfXfqppJHySGtCR-30" value="" style="rounded=1;whiteSpace=wrap;html=1;fillColor=none;dashed=1;" vertex="1" parent="1">
          <mxGeometry x="250" y="350.33" width="190" height="149.67" as="geometry" />
        </mxCell>
        <mxCell id="IPL-HtfXfqppJHySGtCR-4" value="1. Webhook&lt;div&gt;with event payload&lt;/div&gt;" style="edgeStyle=orthogonalEdgeStyle;rounded=0;orthogonalLoop=1;jettySize=auto;html=1;entryX=0.015;entryY=0.433;entryDx=0;entryDy=0;entryPerimeter=0;" edge="1" parent="1" source="IPL-HtfXfqppJHySGtCR-1" target="IPL-HtfXfqppJHySGtCR-10">
          <mxGeometry x="-0.2828" y="15" relative="1" as="geometry">
            <mxPoint as="offset" />
          </mxGeometry>
        </mxCell>
        <mxCell id="IPL-HtfXfqppJHySGtCR-1" value="WorkVivo" style="shape=image;verticalLabelPosition=bottom;labelBackgroundColor=default;verticalAlign=top;aspect=fixed;imageAspect=0;image=data:image/png,iVBORw0KGgoAAAANSUhEUgAAAKMAAABuCAIAAADEeDS9AAAAA3NCSVQICAjb4U/gAAAAX3pUWHRSYXcgcHJvZmlsZSB0eXBlIEFQUDEAAAiZ40pPzUstykxWKCjKT8vMSeVSAANjEy4TSxNLo0QDAwMLAwgwNDAwNgSSRkC2OVQo0QAFmJibpQGhuVmymSmIzwUAT7oVaBst2IwAABQVSURBVHic7Z13fJPV/sc/J6O7TfdI0gBltlKBlkuZBYqCCCIiyFABEcTrQPYQuIKIgr4EEUERLD9EkAt4EVEEpJRlgULZUMZlNKN7pbtN8pzfH0XkwpM8SZ5m8Eref+ac5/s9ySdnf895CFH0hRsXQODoArixE26lXQW30q6CW2lXwa20q+BW2lVwK+0quJV2FdxKuwpupV0Ft9KugltpV8GttKvgVtpVcCvtKriVdhXcSrsKbqVdBbfSroJbaVfBrbSr4FbaVXAr7Sq4lXYVRHb2RxkKdR2QD9z935RwQIbIAOLRBH8+414iAKnVXmiNHsUa4PYDn7WHNISILLBGGQp1OXARYP76TAq/5iTY04oimY9d6zTNrYP6ziuTktOPbisqKaOUMgzDMExtXf25i0eWrXgT+XVUWUwpPy+aOqjvjJrQ8/CxbYXFpfe91NXXnzl/aPnKRi9F1EI3VFkBf5/9aZuqa2oppZTSgqLSDZsWIreUVujMNdJggFr52aq3c1SaxoI16PSZWfu69WxDlQWWf1cLIHY7rUOVmv7D+qxaNrdd6xbG8lRUVq9L/XH21EmQ9raootxzQQGV5pkX+678eHa7NjHGspVXVH23afvMKe8gqgsRm+WFKivHvtF37Rcf+np7PZSUo85rrhiJYEp8xRxG9Axyc7LO/5bQIe7R1GUr1s2b8TlRyM0pjxXYSWmqvPbJ5x/MnvqGQEA4Mx87kZXcfSQiZcRDaIELCqjufLh81oLZb3H7AE6fvdQlMQXhccSLwwttMCC/tqbuuLenB2uG7Bu349qmQN6CGP92lAKqm4eP7ezdM8lYnpfGT9+x6QRReJtRfIuxR+tNlZpPVy6aO32yOTID6NUt8cz5X5CfQRlLGliV+pMV7y80T2YA/0iIv3Q1A4UFVM9wZM1X7z3wmTGZAcS2iflg6XSoK0waqRv2yosmZAawfPF04ArPzssYNlea5tYNGvnUjPcmWfRUYoe4Hbt+gfqWuV5Utf2HpcydZpmX9rGtd/36FXKvmbLMUECY1LmDaVNjRj4PnDclkq5kwstDTBtRyKU9nh2OigbT2azDtkpTAPoT36z4l4CYWdP+ZvjQgQNHDKIF9dxeGApa/PWKBVaUcOigp556YSgtqDOao4HxezLO0/Ph7vkh2rRsNnDEmzBhBxVRURGmjQiFgqe7xUH7GCoNZfW7sz6USzm+oTHmTZuI+rvc+dQ1b88cG9PMyrHMp4umoP600WQBqqoazBmoL5w5EQ0XjacTmGFEbzBw5rEOW7feOa+OfsHqh3t1SwT0ZvTWqvFjhlrtpWN83IBhE2iRkcZDLMTtTG2FyT4YANClc8eElOep0RoZdP3mHdMWdHr9N79kIpSj/bAOGypNGQr4tWnZjI+Rt2a8A3UNV668uHZtrHZBCKZMHo3aPGOpQNTvB45w2hEKyMJp46DNZ08OCPoqdafpWn3txu3is2nExybLWbas0zoGbWNFIo5Zpml6dokHqk1koHoGSPTx5rXANOCp3oDQ6CBcFjJp/ES9gWuIDjzdrzfgR3UsOUmgR8a+49t27jH2rN7A9Bg9G0HxZpfaMmyrdKJcIhJZMCd+FJHYEzDZdekYdDK6SGImQgH5duNHyC1iTSVCARB6IO0Ypx1fb8+Va6Yir4w9OVox5qUXf9mb9mhKRVXNG1PmV15UEn9eFcMEtlRaQCpqdYxFc+JHYBgDYHLcLgDKTIx4zWXYkAFAHTUYKa2fdPmqjeZ8ldHDnwOuso7gCCGI7vH8oInDx007mnGmpEyr0+n+e0e1beevEv9eG9ceJIpAfl/CFLZUWiy4mZGn1+v52NCWlwNGlywAwEOIu4f5uGgkJDjwX0unQGNk5BXscXTvr+cuXOa0ExEeMmvBUqiqWFMJIYhu8dOWU717DA8NDvTw8Ggd02b0iDmI9CcKfz7l58S2SgPnqqpN9bKcfJi6F0GmfgJCCFCpzivk46WRV0YOBZTs1REAWq3dsM0cO2PHvACojQ2+CAGReRFFDFH0JYq+RNGNKCKaZAfPNDZ0QABAfizD+FSVi6KSMk3Gj2Z0XW0zT5+z2st9Wrds9tyoUchnn24RhU/qmqUqjZGh9QO0j22d8vxglHCv+dgTG/+VwsNGDvvU6qd/2r0PMGMs6he6ZsN2fuOBe8yZOgG6q8bTO23a+h9z7CyY/jpqbnPnsyM238uiyrvbd60ZMXSgpQ/mFRRLI/shKsicjUWqzDpz7s/Eju2tKuMDdiie6DUq+4qGBLA0JFTHIK+ipDQ9OEhi2g5DqTC8P0g98bZ3rIcxbL+XFaV46YW5d1W5lj739swlgJeZ+8dA7Jr1ZnWipiEES+e8hnL20hKxAKg+mH6c046AkO+/egdFtg0usAh77E/TSh3KqtW5+2VRYWblp5g5/5MVn3xPFFEWeFGm56jyFPJIa4t5j6rqWn+/FER6sO6O03oDCmiDLl3MtU6gragKlKQgysfsP6ttsUchiL8Y/t5y6Yunz13izFxWXjnuzTkrPtlskcwAgE4//HuXdSV8ED9f75VfvYH8ctZU4ikEbmScyuK0IwnwW/rZa8jjXjC3D3aMLqrVo+jU1HmLprw5tnm07NFtTG1F1Z7f014dNRUIIwo/i+3rGORVFpceCuHqRDkpKCqJDA9FdB/CttlKSxuSerQ8uW8Tpx2VpkAhj4Sir8VbtjZASCRGo7qaFiIWIEBx8rcLq76YdSY7v7CouKCotLS09Pp/7x48fGLrv39+fvDkXTvTIZWRIGsWsYmQQFuc8I/Y9nHW73Y04ufrU1HveXLvBSJhK4mXUHM2c/jIIeFhIabtSAL8cgobzqfdIBJbrXGaj/3q9H0ogOJ61NQA1UA9IAJ8AW/IfIiQ17+f1hlQSPT6Q0Ih317pSvbN9nG9EB3HGkJBlZUz57/42UdzOe2cu3g1oUMyFE86vFo7QGmLoBQgphe+/ze/MjvtyK6U5K78XQ94cfKBvZdJOEu1ppRClZGbr4mKCDVthKE05bnXjxy5QYJNrunaHvu13uZD9QzUVdAWQqtBhRbaQmjLoQVEIu5oUV2AMl81fjRHxJY5yKVhm9avIxIWLQkh0PpGx4R2/UdH00YIIeGhgVtTNxNJEP8i8cG56jRlKNT5gHjBh+O7JiW0jlEIBCKAFheXnMq6tGrTr3dOpSH4CeJntNujFFBdvXjlaDzv3pqhEAq6I0JMPNmmW3oGueqqmsuPRoA/hIGhImEEZHGEd5/CB6eY6jVC8+qgPpm6+SNtxYklC6cP6t+nTauYVjGKVjHNunZJeO+f464f33Yi8xDCAqmywMT+ARD9w7bd/MsjINi8bQ4K2Be6iUgACA4c5N60FgrItxtXQ8O++W03nKVOU2VF8rPxWzYsl0eFc+Sk+Hz1hlnvLUZ0a/bhEqVQHc7NL4yKMGuhxgTl2sqgwH7GVj9oha5jB/nptC0irspaXFIWFtodsggHVmun6KepsrpzStu03evNmQoTgu5JCdIW8l+//5pIZGwZCLQBipZhnEHanHh5eQp9GtJ3nSISliaaeArzLx4fPGSQjCv41cfHux51x/ecZZ+22QXH12laqwfEpTd/DpJYthW/eNnqRfPWEwXLiMn8TpQTdW5BtCzS2K9Ei+p79Is9vmcDp53bd9UtW7RAdC/LI9+bBifop4uupO1caqnMAGa+NwmtZLSGJabF/E6UE7k0YtSEGVRZy54c5vnnr9/dzlFz2olpLu895DUUO2zT2sFK0wpddFI/66a/vt5eu7+ciWINe3JgxOLPU5skUH7WlAlANusQkABA4nebtptj56N5k1Gr5F8e63B0nS7PX7von1Y/PfDpPkARZYvPJQHiC0d+O3v+ivVl+4uO8bG9Bw9DqZGQfanfxx98V1RiJB70QTvt2wECS89tNxWOVJpSClR069LJagtikfDbjeuhKWZP9oqfveQrq43fRyAgs98dhyojof8iAUD37D3IaUcoEsGrNTiPdtoGR47IaK1e1izs5rGt3l7Wj0gLikoiw7tBJnt0zZxSQJV+83ZOqxYKfiWFTm/wELeEtDnr+X2qZ5B7S6fPMT3dqq2t8/HpDHmYiWPWtsOhrbfWkByv4CMzgIiwkHmLJkNT+WgSIQASfvixCTatxSLhutRlyGVvPIhIAAg5Y1Fu3VUBuQ6RGQ5WmqGcaw7m8Nqrw4Es9t5P5r94/tqi4lL+XoYNGQBUGQ39D4yes+Rrg8mwxTXrtwCt+ZfEOhy7ckK9fD3GjnyOp94hQYF7Mu7m3Sx8NDyPCAi0NbFPtuj0JMvVIhbh4+OtFzLHfsliXf0gnsKCi7cCwny7Gxl27E87PvWtmVDIHbV96dB+mqFQ55aVnw6UBPA0dfL0+W5dUoiCZWeJGhhosnR6Lf/24+atnDatkhAdyxqLAoAqr3ywdMG0dydI/H3vf9ig02/ZvnvCK2MQ3d3Yg3bAwWtkVHn9+Mk9PZISeNrR6Q3xySOvXytgPQZAlbf3HfxhQL+ePL0A6Dl44p/p2STU6NiCKksQGjJ/ypAuifFisej8peubf/ojO+M8ouUOlBlOoHTtmEm9tnxrffT/fXbu3jdi6HtEwbISTssaevRoeWzvJv4/dWbWhaTOyUSRaCIPrTegoAaoACjghxBfzgus7IATrHsr0zV5hdJIvvtOVdW1/n6xrBMhSgHV5bMXjnR6MpanF4OBiek6XHm7yMQeuXPiBHtZ2qAwqW/Pbp15mvHwEAeEBhzYfoRIHr7PixBA66sXVQ95NoWnF4GANIsM3L5xO5HwjUC1M05QpxsY5NeXV/wh8bc48vchNHmFcmmE0ehdZbpKk2/19Tr3qayuCfBLRqSfHQ5INiGOr9NESKAt6NS53ROxfOOBAvx9Kxo8Tv52iUjYwvO0QaFS317d+TYenh5iSZh4P1vj4cw4vk7j3hCGYegx/mPTC5evdYxPQXS7R2s11THIqynTpgUG8D2TnldQLI0MQ3Rfh46mLcMp2p/GIzDHM87wN9Whfbuk/k+hnGXfiYgFQPm+P7hvIeIkKiJ02tylULEswTotTqE0AHi0XPZFapNYWvr+m6g0cvNXWOToyavMuYWIk9deHQ6oHLQDaQ1Oo3SE594du67daILT5ck9koBmtJ4lBoF4i1By4UTmWf5e4uPa9B3idBcfmMBZlCaEAPLUzTv5mxKLhFu3z0WBkbPLvq3nLlnL3wuABTMmoianSUzZAacYkTXSGL1bWFwWFsL3sqaikrLw0N6QBrOtolCobly9djS2bUueXhiGCoVPICrcSU5Im8bxs6z7EEKg9Y+OCeEfvevr4y3wNhxmi94lhEDr6RVA+/NeBieExMY325n6E+G9Q2MHnKhO4950y1BVc5B/9O5dVW4LhYz121GGQn02v/BORFgwTy/FpeVhIX0hlVjxLgk740R1Go3BG1pVUveObVvzvSAyUOJ/K6/u4qGbj55dJoRA6xEdE5LUmeP8HCc+3l5iX+bQf06whv47Fc5VpwFQbUPHhGbnDm3hb+r02YtdEvuwb1rrGOQVV9dk8bxaFoBSndcsWupsP+OjOF2bQyQe59N/OZVl4kp0c0nsGN/jmedombFVlLo/DjVB6L9CHjVs7DSqNhL67zQ4ndIAIGj/6aomWEURCMjsd8ei0sh0KyBy6cr/Mx35ZSbvT5sAxtTLPJwBp2u9cW8idPXWnayY5nxfHlXXoPP29DC+u3X25Okj/If69Q26hJSXr2bnOfOmtXONyBppHDGFRHn37tmFpymRUFhSI8r8/Qr77lZNkKYk9+URg/h7KS0qTN+T6czjMqdsvQHIAj6Yu7qsvAku8+rdLQEwshUR6fX7jrV3coyc7LKETh1ijXpxDpxUaSIUAMJdew7wNxUYHAywX/XeGPqfunkHfy8KWYRbaWuJCn997GL+AyYPsdjU+x2k/h8tTC0t0/L0YsULweyM8ypNxAKgkv9EqLKqysSt/0QkAPS79uzn6SVHUwjY9tJ9njiv0gDgJVu9bivPWl1cVASYDAOShk8c9z7PxuP8pWy30jwI9/xtR+qlK9f52Jj15Q4Em4rjJCIBoDuQdtRqFzq9YdfeYwjysdqCHXBqpQkAdPri681WW1DnFRZlbuee5vrKl3+5yeoAkivZN7LS99vuBUhNglMrDYAofDauWXrrLvdFIqys+24rYOq8xT1CPA/v+f3I8VPWeXl7zmfwaWfds3bDGdfIHoJq6p4fmfjzltWWPnjh8vWO8U9D3tKcI8u03oCCOm3FoYAHDs+Zw86f9414YQJROLvSzrhG9hAkQHTt+AXvQM+eXc2onX9RUqaNaT4coSFmvpieiATQ6s7euDRy6ACh0Nz39mWevdg/ZTRkrR11/t18HgOlARCJ/8Htm/1DI4ydTn4ITV5hZPJ4lNdadAMvkXjcOnnrUNbp5wYk+/pwR+0fTP8zuUcXSDs5fxgCnL+f/htFp5nvLhs1YYY6l+M1Jnv/OCqXDsTdUiK1eBWaKAIzfs+OCBv40+79BuPBwnkFxTPnL3s6ZSTkfR4LmfFY9NP3oQCUNcCpGfOXjRkxOKaFwt/PTyggAGrrG6oqqzIyz835+Nvrfx5FZFs+h6ZogwH5GkCw+psFCZ2ebNNSQYgAoLW1dRcuX9+999D6L5cAnRHt7/QrY3/zOCndCKWAqhLIAWKeeSG+uSykoUGfma26fOwUIEZgJOurrqxxpGeQWw4UA9WADGgANIAUCEG0z2OkcSOPn9L3oXoGlXpUGiAgCBLBR2ijSwcoBSgFgWMvNeCJs7yhzQqISIAgD9j+KnxC7m17PdY8HqMJN/xxK+0quJV2FdxKuwpupV0Ft9KugltpV8GttKvgVtpV+H91nSRiOq/jqgAAAABJRU5ErkJggg==;fontStyle=1" vertex="1" parent="1">
          <mxGeometry x="41" y="120" width="74.09" height="50" as="geometry" />
        </mxCell>
        <mxCell id="IPL-HtfXfqppJHySGtCR-3" value="&lt;div&gt;&lt;b&gt;Function App&lt;/b&gt;&lt;/div&gt;" style="image;aspect=fixed;html=1;points=[];align=center;fontSize=12;image=img/lib/azure2/compute/Function_Apps.svg;" vertex="1" parent="1">
          <mxGeometry x="487" y="120" width="56.67" height="50" as="geometry" />
        </mxCell>
        <mxCell id="IPL-HtfXfqppJHySGtCR-9" style="edgeStyle=orthogonalEdgeStyle;rounded=0;orthogonalLoop=1;jettySize=auto;html=1;" edge="1" parent="1" source="IPL-HtfXfqppJHySGtCR-5" target="IPL-HtfXfqppJHySGtCR-8">
          <mxGeometry relative="1" as="geometry" />
        </mxCell>
        <mxCell id="IPL-HtfXfqppJHySGtCR-5" value="&lt;div&gt;&lt;b&gt;Service Bus&lt;/b&gt;&lt;/div&gt;" style="image;aspect=fixed;html=1;points=[];align=center;fontSize=12;image=img/lib/azure2/integration/Service_Bus.svg;" vertex="1" parent="1">
          <mxGeometry x="697" y="127.19999999999999" width="46.67" height="41.18" as="geometry" />
        </mxCell>
        <mxCell id="IPL-HtfXfqppJHySGtCR-6" style="edgeStyle=orthogonalEdgeStyle;rounded=0;orthogonalLoop=1;jettySize=auto;html=1;entryX=-0.029;entryY=0.417;entryDx=0;entryDy=0;entryPerimeter=0;" edge="1" parent="1" source="IPL-HtfXfqppJHySGtCR-3" target="IPL-HtfXfqppJHySGtCR-5">
          <mxGeometry relative="1" as="geometry" />
        </mxCell>
        <mxCell id="IPL-HtfXfqppJHySGtCR-7" value="3. Send event payload&lt;div&gt;&lt;div&gt;as message&lt;/div&gt;&lt;/div&gt;" style="edgeLabel;html=1;align=center;verticalAlign=middle;resizable=0;points=[];" vertex="1" connectable="0" parent="IPL-HtfXfqppJHySGtCR-6">
          <mxGeometry x="-0.0515" y="-1" relative="1" as="geometry">
            <mxPoint y="-18" as="offset" />
          </mxGeometry>
        </mxCell>
        <mxCell id="IPL-HtfXfqppJHySGtCR-21" value="4. Publish&lt;div&gt;payload&lt;/div&gt;" style="edgeStyle=orthogonalEdgeStyle;rounded=0;orthogonalLoop=1;jettySize=auto;html=1;entryX=0;entryY=0.5;entryDx=0;entryDy=0;" edge="1" parent="1" source="IPL-HtfXfqppJHySGtCR-8" target="IPL-HtfXfqppJHySGtCR-20">
          <mxGeometry x="-0.4667" y="25" relative="1" as="geometry">
            <mxPoint as="offset" />
          </mxGeometry>
        </mxCell>
        <mxCell id="IPL-HtfXfqppJHySGtCR-8" value="&lt;div&gt;&lt;b&gt;Function App&lt;/b&gt;&lt;/div&gt;" style="image;aspect=fixed;html=1;points=[];align=center;fontSize=12;image=img/lib/azure2/compute/Function_Apps.svg;" vertex="1" parent="1">
          <mxGeometry x="773.33" y="260" width="56.67" height="50" as="geometry" />
        </mxCell>
        <mxCell id="IPL-HtfXfqppJHySGtCR-10" value="&lt;b&gt;API&lt;/b&gt;&lt;div&gt;&lt;b&gt;Management&lt;/b&gt;&lt;/div&gt;" style="image;aspect=fixed;html=1;points=[];align=center;fontSize=12;image=img/lib/azure2/app_services/API_Management_Services.svg;" vertex="1" parent="1">
          <mxGeometry x="267" y="122.41" width="55" height="50.77" as="geometry" />
        </mxCell>
        <mxCell id="IPL-HtfXfqppJHySGtCR-11" value="2. Authenticate and send&amp;nbsp;&lt;div&gt;incoming request to backend&lt;/div&gt;" style="edgeStyle=orthogonalEdgeStyle;rounded=0;orthogonalLoop=1;jettySize=auto;html=1;entryX=0.035;entryY=0.56;entryDx=0;entryDy=0;entryPerimeter=0;" edge="1" parent="1" source="IPL-HtfXfqppJHySGtCR-10" target="IPL-HtfXfqppJHySGtCR-3">
          <mxGeometry x="-0.0864" y="18" relative="1" as="geometry">
            <mxPoint x="-1" as="offset" />
          </mxGeometry>
        </mxCell>
        <mxCell id="IPL-HtfXfqppJHySGtCR-15" value="4. Upserts the payload data&lt;div&gt;into Delta Tables&lt;/div&gt;" style="edgeStyle=orthogonalEdgeStyle;rounded=0;orthogonalLoop=1;jettySize=auto;html=1;" edge="1" parent="1" source="IPL-HtfXfqppJHySGtCR-12" target="IPL-HtfXfqppJHySGtCR-14">
          <mxGeometry x="-0.2717" y="-15" relative="1" as="geometry">
            <mxPoint as="offset" />
          </mxGeometry>
        </mxCell>
        <mxCell id="IPL-HtfXfqppJHySGtCR-12" value="&lt;div&gt;&lt;b&gt;Function App&lt;/b&gt;&lt;/div&gt;" style="image;aspect=fixed;html=1;points=[];align=center;fontSize=12;image=img/lib/azure2/compute/Function_Apps.svg;" vertex="1" parent="1">
          <mxGeometry x="660" y="260" width="56.67" height="50" as="geometry" />
        </mxCell>
        <mxCell id="IPL-HtfXfqppJHySGtCR-13" style="edgeStyle=orthogonalEdgeStyle;rounded=0;orthogonalLoop=1;jettySize=auto;html=1;entryX=0.514;entryY=0.029;entryDx=0;entryDy=0;entryPerimeter=0;exitX=1.004;exitY=0.692;exitDx=0;exitDy=0;exitPerimeter=0;" edge="1" parent="1" source="IPL-HtfXfqppJHySGtCR-5" target="IPL-HtfXfqppJHySGtCR-12">
          <mxGeometry relative="1" as="geometry">
            <Array as="points">
              <mxPoint x="780" y="156" />
              <mxPoint x="780" y="230" />
              <mxPoint x="690" y="230" />
              <mxPoint x="690" y="261" />
            </Array>
          </mxGeometry>
        </mxCell>
        <mxCell id="IPL-HtfXfqppJHySGtCR-14" value="&lt;b&gt;Azure&lt;/b&gt;&lt;div&gt;&lt;b&gt;Databricks&lt;/b&gt;&lt;/div&gt;" style="image;aspect=fixed;html=1;points=[];align=center;fontSize=12;image=img/lib/azure2/analytics/Azure_Databricks.svg;" vertex="1" parent="1">
          <mxGeometry x="483.93" y="360" width="62.8" height="68" as="geometry" />
        </mxCell>
        <mxCell id="IPL-HtfXfqppJHySGtCR-16" value="Microsoft Azure" style="shape=image;verticalLabelPosition=bottom;labelBackgroundColor=default;verticalAlign=top;aspect=fixed;imageAspect=0;image=data:image/jpeg,/9j/4AAQSkZJRgABAQAAAQABAAD/2wCEAAkGBxANERAPDw8NDRERDxESFQ4QEBANDxESFRMZFxUVFhUYHSggGRolGxgVITEjJSkrLi4uGSAzODMsNygtLisBCgoKDg0OGxAQFy0dICYrKy0vLS0wLS0tLSsuKy0rKystLS03LS0tLSsvKy0rLS0tLS0rKy0rLS0tLS0tKy0tK//AABEIAOEA4QMBEQACEQEDEQH/xAAcAAEAAgMBAQEAAAAAAAAAAAAAAQcDBQYEAgj/xABCEAACAQMABAkICAUEAwAAAAAAAQIDBBEFEiFRBgcTMUFxgZGhFCIyVGFygtEWU5KTorHB0hVSYmPCIzNCshdzg//EABoBAQACAwEAAAAAAAAAAAAAAAABBQIDBAb/xAAxEQEAAQIDBgQGAwEAAwAAAAAAAQIDBBESBRMhQVFSFDGBkWFxscHR8DKh4RUiI0L/2gAMAwEAAhEDEQA/ALxAAAAAAAAAAAAAAAAAAAAAAAAAAAAAAAAAAAAAAAAAAAAYLm8pUccrVpUs82vOMM97JimZ8oRMxHm+I6SoNZVeg1vVSDX5mW6r7Z9mub9uP/qPeE/xGh9fR+8h8xuq+2fY39rvj3g/iND6+j95D5jdV9s+xv7XfHvB/EaH19H7yHzG6r7Z9jf2u+PeD+I0Pr6P3kPmN1X2z7G/td8e8H8RofX0fvIfMbqvtn2N/a7494P4jQ+vo/eQ+Y3VfbPsb+13x7wmN9RfNVpPqnF/qN3X2yb+13R7wyU68JbIzhJ7lJMiaKo84ZU3KKvKYlkMWYAAAAAAAAAAAAAAAAAAAHLcYvCOWjLRzpY5erLkqbaT1W03KeHz4S72jow1reV5T5NN+5oozjzUBd1p1pyqVZyqzk8yqTbnKT9rZcRERGUcFZMzM5yz6H0tOyqKUW3Tb8+n/wAZR6Wl/NuZjnMNV6xTdpynz5StCMk0mtqaTT3p8xuUMxkkAAAAyQDJABPG1bGulbGgmOHGHa8FtKSrwlCo9adPHnPnlF82favkVGMsRbqiqnyl6bZeLqvUTRXOcx/cN6cS1AAAAAAAAAAAAAAAAAABSfHFpXl72NvF5jbU0mv7lTEpfh5PxLbBUZUauqtxdedeXRwMjrlzMU0YSzhYnA685a1gm8ypN0n1R9H8LiZ0TwUuMt6bs/Hi3Zm5UZAZCUAAIyAJGz4N3fI3FNt4U/8ATfxc34sHNireu1Pw4u7Z13d4imeU8Pf/AHJYBRvWgAAAAAAAAAAAAAAAABiuriNGE6s3qwpwlOUt0YrLfciYiZnKETMRGcvzJpG9lc1qtefpVqk6jWc4cm3jqXN2HoKaYppimOSlqq1TMy8zJQxyRjLKHQ8BLzUrTot7KsMr34bf+rl3EUcJcmOo1URV0+7ujaqQBkCMkgBADISjO7Z7QLL0ZdcvSp1f5opv2S5pLvyeeu0aK5pe0w93e2qa+sf3zeo1twAAAAAAAAAAAAAAAA4rjb0r5PYSpReJ3M1SW/U9Ko+rC1fiOvBUarmfRzYuvTby6qNLhVoA+ZIxlMFrcOhUp1Vz05qWN6T2rtWV2mE8OKaqddM0zzWtGakk08ppNPenzG55+Yy4SkkQAyEoyBGQAEAdhwIu8wqUXzwlrr3Zc/ivEq9oW8qor6vQbHu50VW55cff9/t05XLoAAAAAAAAAAAAAAAAUlxv6U5e+VBPMbamo/8A0qYnPw5NdjLjA0aberqq8ZXnXl0cMdjlQBEkRKWKaMJZw77ghecrbQi/SpN031LbH8LS7DKieCoxlGm7M9eLdZM3MZAgABAAlKMgbPg3d8jc029im+TfVLYvxapz4q3rtT8OLswF7dX6Z5Tw9/8AclilC9aAAAAAAAAAAAAAAAYby5jQp1Ks3iFOEpye6MVl+CJpiapyhEzERnL8zX93K4q1a8/Tq1J1H04cpN46lnB6KmmKYimOSjqq1TMywEsQJQwMckYSyhveBN3ydeVJvZVhs9+G1fh1u4ijhLmxtGqiKujuDaqkACUoAAQAAjPYBZ+irvl6NOr0yis+8tkl3pnnr1vd1zS9lhru9tU19Y/vm9ZqbwAAAAAAAAAAAAAHEcbelPJ7HkYvE7moqft1F5031bFH4jswNvVcz6OXGV6beXVSJcqkCUACB8yREsoRb13RqQqx54TjLrw9q7VldprnhxTVTqpmmea0ITUkpReU0mnvT2o3KKYynKU5JEAAIyAyBGQkA7HgLeZjUot+i1OPVLY/FL7RV7Qt5TFfovtj3c6arc8uPv8Av9uqK1dAAAAAAAAAAAAAAKR43NKeUX3Ip5jbU1D2cpPE5vu1F8Jc4G3pt59VVjK87mXRxB2OQAAAIkiJTDDNGEwziXc8EbvlbaMW9tJum+pbY+DS7DKjyVmLo03M+vFujNyoyBGQASgkAIyBs+Dd5yFzSk3iMnycuqWxeOq+w58Vb12pj19nZgbu6v0z14e/+5LKKB6wAAAAAAAAAAAADBfXUbelUrTeIU6cpyf9MU2/yMqaZqmIhFUxTGcvzTe3UripUrT9OrUlUl1ybb/M9HTTFMREclBVVqmZnmwEoAASggGBjkjGWUNzwOuuTrypvmqx2e/DavDWMaeEufGUaqNXR2uTarUACQyBAAJRkCMgWloa88ooUqvTKCz7y2S8Uzzt+3u7k0vYYa7vbVNfWP75vaam8AAAAAAAAAAAHD8bmlOQslRi8Suaihz4fJx86b8Ix+I7cBb1XNXRyY2vTby6qULlUAAJAIAAfMkYyyh8UqzozhVXPCSl14fN2muWUxqiaZWa8rY04vpTWGnua3m6JiYzhSzTMTlKMkoAlADIEZAjJIAdnwBvMxq0G/RaqR6nsl4pfaKraNvjFfovdkXeFVufn+f34utKxdAAAAAAAAAAAApHjY0p5RfOknmFtTVP2a8vOm/GK+EusDb02s+qoxteq5l0cWdrkAIAEAACXzJESQ3PAjRPl1/bUWswVRVJ9K1KfnNP2NpR+I5sTXotzLpw9Oq5ELK4Y2nJXLkl5tWKmt2tzSXes9owNzVay6cHBtO1ovzPKeP5/fi0eTrV6MgMgQSASjIDIGy4N3vIXNKTeIylqS92ezweH2HPireu1Mevs68Fd3V+mfT3WeeferAAAAAAAAAADz6Qu429KrXnshSpzqS6opt/kZUUzVVFMc2NVUUxMy/Nd3cyrVKlWbzOpOU5P+qTbfiz0lNMUxERyefqqmqZmWIlABAAJAIAMhK0uJTRWFc3klztUIP2LE6nY3qfZZV7Qr4xR6rLA0cJq9HXcOLPlKCqpbaUs/DLY/HVfYa8Bc03NPVq2ta1Wor7Z/qf2HBF084AQEmQIyAAgAyRaug73yi3pVeduGJe/HZLxTPOYi3u7k0vXYW7vbVNf7nze40ugAAAAAAAAAcNxu6U5GyVBPErmoo4zh8nDEpvv1F8R3bPt6rmro4sdc029PVTBdKhAAAEhAAQBDCX6L4IaK8hsreg1iUaac//AGT86f4m12Hnr9zeXJqXtmjRRFLZ3dBVYTpy5pxlF9TWDXRVNNUVRyZXKIrommecZKmrU3CUoS2SjJxa9qeGelpmKoiYeNqpmmZpnzjgx5JQZAgAEoySGQIA7Ti+vcqrQb5mqkep7JeKj3lVtK3xiv0XeyLvCq3Pz/P78XYlWugAAAAAAAABSPGrpTyi/lTTzC2gqa3a786b8UvhLzA29NrPqpsbc1XcujjjtcaCAABKAAAhLfcBdF+WX9vTazCM+Vnu1KfnYfsb1Y/EaMTc0Wpn092/DUa7kR6v0GefXgBXfDWz5K5c16NWKn7NZbJLwT+IvMDc1WsujzW07Wi/q5VcftP78WgOxXmSRGQIyAAgBkDZcG73ye5pTbxFy1Je7PZ4PD7DRire8tTHr7OrB3d1epq9Pdah516sAAAAAAAA82kryNtRq15+jSpzm+qKzjrMqKZrqimObGqqKaZqnk/NtzXlVnOrN5nUnKcnvlJtvxbPTRTEREQ85VVqmZljJQBIAAggAAStTiY0XiFxeSW2UlRg/wCmPnTx7G3FfCVW0bnGKPVZ4CjhNfoswrFiAc5w6s+Ut1US20Zp/DLZL/F9h3bPuabmnqrNqWtVnVHKf65q9yXbzoBADIEZCTIEEgwLY0Be+U29Kq3mThiXvx82XimzzmIt7u7NL1mFu72zTV7/AD5tgaHQAAAAAAA4Xjd0nyNnG3TxK5qJNdPJ08Sl46i7Tv2fb1XNXRw4+5pt6eqmy7U4BAAgfcKLltXiZ00TLCq5TTwl9+TS9hO6qY7+lHk0vZ3jdSb+k8ml7O8bqo39K1eC/DOwsLShbYuHKnDz2qaadST1ptedzazZU39nX7lyauHutbO0bFuiKeLaf+SLDdc/dx/cav8AlX/h7tv/AFLHx9kPjJsN1z93H9w/5d/4e5/1LHx9nnvOMfR1SE6co3TjOMov/SjzNY/mFOz79FUVRlwRXj7FymaZzyng5GnNSSknlNJp700W7zuWXB9ZCEZCUZJAABGQlAHbcXd7/vW7e6rH/rL/AB7yq2lb8q/RdbJu/wArc/P8/Z2hVLkAAAAAABSHGjpPym/nBPMLeKpLdrelN9eXq/CX2At6bWfXipMdc1XcujkTscYBASAeq3msY6Ub7dUZZOW7TMTmzGxpAAAAB8yIlMMFRGuqGymW90BX1qWq+eDa7HtX6rsNJXHHNsgwAIyACUAAIySNjwcvvJ7mjUbxHW1Je7PzXnqyn2GjE295aml04S7u71NXp7/ua2jzb1QAAAAAHl0pextqNWvP0aVOU37dVZx28xnbomuqKY5sa6oppmqeT84V60qsp1JvM5ylOT3yk8t97Z6eIiIyh5qqqapzljJQAAkIBMk83po1c7Hz/mbqK8+EuW5b08Y8mY2NQAAAQwlimjCWUPToStqVdXomsdq2r9e80VRxbJ40uiyQ1oAARkkMgRkAEoYQtvg5feU21Go3mWrqy9+Pmy72s9p5vE293dml6vCXd7Zpq58/nDZGh0AAAAA4Tjd0nyVpC3T864qbV/bp4k/xaniWGzreq5NXT7uDaFzTb09VPF4pggAAEAAAHpo1s7Hz/mbqK8+Eue5by4wzGxpAAADHNGMsoYZScWpLni011p5NVcNtLq6dRTipLmkk11M1sJjJ9ZJQjIAJQAyBAADtuLi+/wB63b3VYrujP/DxKradv+Nfp+PuudlXf5W5+f2n7O4KlcgAAAApDjO0n5Tf1Ip5hbxVFbtZbZvr1nj4S/wFvRZievFRY65qu5dODkztcYBAAhIAAAdDwB0X5Zf0INZhTfLT3atPas+xy1F2nNjLm7tTPXg6cJb13Yjpxddw54EcnrXVnDMNsqlvFejvlBfy749HRs2LTgdoZ5W7s8eU/lnjtn5Z3LUfOPwr4uVKAAPmREphhqI11Q2Uy3Ggq2tT1emDx2Pav17jSmuOObYksQCAAEAAIJS2PB2+8muaNRvEdfVlu1Jea89Wc9hoxNveWqqW/C3N3epq+P8AU/ua3zzT1QAAAeTS19G1oVq8ualTlPG/Cyl2vC7TO3RNdcUxzYXK4opmqeT851qsqkpTm9aU5OUnvlJ5b72epiIiMoeZmqapzl8EoCBAAJAIAEJWtxOaM1aVe7kttSapQ9yG2TXscnj4Cn2lczqijpxW2zreVM19VjFYsld8OeBGvrXVnDztsqlvFelvlTW/fHp6Nux3OB2hllbuz8p/Kmx+z9Wdy1HHnH4VqXijAhDCWKaMJZQz6Iq6lXHRNNdvOv1XaaavNtnjS35DWAQAJSjIEZAZAhgW7wYv/KbWjUbzLV1Je9DzW+3Ge083ire7uzS9RhLu8s01c+fzhtTndIAA4Pjd0nyVrTtk/OuKmWv7dPEn+Jw7mWWzbeq5NfT6z+yrto3MrcU9fsqIu1KgAAABIQIAJZ2JNt7Eltbe4Jfong5o1WVrQt9madNKWOZze2b7ZNs8xfuby5NXV6Wzb3dEU9GyNTYAcLw44Eq51rm0io1uedJbFV3tbp/n189rgcfu/wD13PLlPT/FVjsBFz/zt+fTr/qrJRcW00002mmsNNc6aL+Jz8nn5iYnKUEoY5oxllDBJuLUlzpprrRqqhtpl09KopxUlzSSfeYMZh9ZJDIEZAgAAyBGSUu34tb7DrWzfOlVivasRn/h4lTtO3wpr9Px91vsq7xqt+v2n7O8KhcgACkuM3SDr39SP/GhGNKK9uNaT75NdiPQ4C3psxPXioMfc1XpjpwcodriQEhAAQAABLo+L7Rnld/Qi1mNJuvLqp4cfxuC7TkxtzRZn48Pf/HVg7eu7Hw4r3POvQAAABxvDfgZG9TuLdRhcJbY7IxrJdD3S3Pse9WWBx82v/CvjT9P8VuOwEXo10cKvr/qpa1KVOUoTjKEotpxknGUWudNdDPRRMTGcPO1UzTOU8GOQlEMNRGuqGymW10LVzTcX/xk12Pb8zVDKrq95LEAARkJCRADIGx4OXrt7qhU6OUUZe7PzX+eew0Ym3rtVU/D6cXRhbm7vU1fH68FxnmXqAABTXGfoSpb3UrlRbo3DT10tkaiilKLfQ3jK35e5l/s+9FdvRzj6KLaFmabmvlLjDvV4EgACAkIEMC3+KrQE7WjUua0XCdfVUIyWJKlHLTa6NZvPUkUe0b8V1RRTy+q72fYmimaqvOfo7srlgAAAADleGfBCGkIurT1adzFbJc0aiXNGf6PoO/BY2qxOmrjT9Pk4MZgqb8Zxwq/fNT93bTozlSqwlTnB4lCSw0z0lNVNdOqmc4ebroqoqmmqMpeWaIkhttGUHTht2OTzjcug1SzmXryQgJSgABGQASAbjgroqd3cU0k+TpzjOpPoSi84zveMY630HNi70Wrc5+c8IdOEsTduxl5ROc/vxW6ebemAAHxWoxqRcJxjOMlhwklKLW5p85MTMTnCJiJjKWknwM0bJ5dnR7NaK7k8HRGMv8AfLROEs9kPn6FaN9Tpd8/mPGX++UeEs9sH0K0b6nS75/MeMv98nhLPbB9CtG+p0u+fzHjL/fKfCWe2D6FaN9Tpd8/mPGX++Twlnsg+hWjfU6XfP5jxl/vk8JZ7YZ7PgrYUJKdO0oRknlScddp71rZwzGrE3qoymqWVOHtUznFMNyaG4AAAAAAB4dI6HtrrHL0KVZrYpSinJLcpc6Ntu/ct/wqmGq5Zt3P50xLXrgdo5PKtKae/M/mbvHX+9q8DY7GT6J2Pq8ft1P3EeNv930R4HD9iPolYerx+3U/cPG3+76HgbHYfRKw9Xj9up+4eNv930PA2Ow+iVh6vH7dT9w8bf7voeBsdh9ErD1eP26n7h42/wB30T4Gx2C4JWHq0ftVH/kPG3+48FY7H19FbH1an3y+Y8Zf7zwVjsgXBax9Wp/if6keMv8AfJ4Kx2Q2ltbU6MVClCFOK5owiox7kaKq6qpzqnOXRRRTRGVMZQymLIAAAAAAAAAAAAAAAAAAAAAAAAAAAAAAAAAAAAAAAAAAAAAAAAAAAAAAAAAAAAAAAAAAAAD/2Q==;fontSize=10;" vertex="1" parent="1">
          <mxGeometry x="820" y="460" width="26" height="26" as="geometry" />
        </mxCell>
        <mxCell id="IPL-HtfXfqppJHySGtCR-17" value="Master Data Store" style="text;html=1;align=center;verticalAlign=middle;whiteSpace=wrap;rounded=0;fontStyle=1;fontSize=15;fontColor=#FF6666;" vertex="1" parent="1">
          <mxGeometry x="470.91999999999996" y="50" width="178.17" height="30" as="geometry" />
        </mxCell>
        <mxCell id="IPL-HtfXfqppJHySGtCR-19" value="&lt;h1 style=&quot;margin-top: 0px; line-height: 30%;&quot;&gt;&lt;span style=&quot;background-color: initial; font-size: 10px;&quot;&gt;&lt;font style=&quot;font-size: 10px;&quot; color=&quot;#0066cc&quot;&gt;&lt;span style=&quot;font-weight: normal;&quot;&gt;Service Bus &lt;/span&gt;Topic &lt;span style=&quot;font-weight: normal;&quot;&gt;with&amp;nbsp; separate &lt;/span&gt;subscriptions&lt;span style=&quot;font-weight: normal;&quot;&gt; for the master data store and the eDiscovery system&lt;/span&gt;&lt;/font&gt;&lt;/span&gt;&lt;br&gt;&lt;/h1&gt;" style="text;html=1;whiteSpace=wrap;overflow=hidden;rounded=0;" vertex="1" parent="1">
          <mxGeometry x="697" y="77.2" width="193" height="50" as="geometry" />
        </mxCell>
        <mxCell id="IPL-HtfXfqppJHySGtCR-20" value="eDiscovery System" style="rounded=1;whiteSpace=wrap;html=1;" vertex="1" parent="1">
          <mxGeometry x="958" y="255" width="120" height="60" as="geometry" />
        </mxCell>
        <mxCell id="IPL-HtfXfqppJHySGtCR-22" value="DCR" style="image;aspect=fixed;html=1;points=[];align=center;fontSize=10;image=img/lib/azure2/other/Data_Collection_Rules.svg;" vertex="1" parent="1">
          <mxGeometry x="280" y="379.7" width="30" height="30.63" as="geometry" />
        </mxCell>
        <mxCell id="IPL-HtfXfqppJHySGtCR-23" value="LogAnalytics" style="image;aspect=fixed;html=1;points=[];align=center;fontSize=10;image=img/lib/azure2/management_governance/Log_Analytics_Workspaces.svg;" vertex="1" parent="1">
          <mxGeometry x="340" y="376.33" width="34" height="34" as="geometry" />
        </mxCell>
        <mxCell id="IPL-HtfXfqppJHySGtCR-24" value="AppInsights" style="image;aspect=fixed;html=1;points=[];align=center;fontSize=10;image=img/lib/azure2/devops/Application_Insights.svg;" vertex="1" parent="1">
          <mxGeometry x="282.5" y="440" width="24" height="34.36" as="geometry" />
        </mxCell>
        <mxCell id="IPL-HtfXfqppJHySGtCR-25" value="Monitor" style="image;aspect=fixed;html=1;points=[];align=center;fontSize=10;image=img/lib/azure2/management_governance/Monitor.svg;" vertex="1" parent="1">
          <mxGeometry x="339.64" y="440" width="34.36" height="34.36" as="geometry" />
        </mxCell>
        <mxCell id="IPL-HtfXfqppJHySGtCR-27" value="LogicApps" style="image;aspect=fixed;html=1;points=[];align=center;fontSize=10;image=img/lib/azure2/internet_of_things/Logic_Apps.svg;" vertex="1" parent="1">
          <mxGeometry x="390" y="439" width="35" height="35" as="geometry" />
        </mxCell>
        <mxCell id="IPL-HtfXfqppJHySGtCR-28" value="KeyValut" style="image;aspect=fixed;html=1;points=[];align=center;fontSize=10;image=img/lib/azure2/security/Key_Vaults.svg;" vertex="1" parent="1">
          <mxGeometry x="250.00000000000006" y="280" width="28" height="28" as="geometry" />
        </mxCell>
        <mxCell id="IPL-HtfXfqppJHySGtCR-33" value="&lt;font style=&quot;font-size: 10px;&quot;&gt;Logging and Alerting&lt;/font&gt;" style="text;html=1;align=center;verticalAlign=middle;whiteSpace=wrap;rounded=0;fontStyle=1" vertex="1" parent="1">
          <mxGeometry x="270" y="350.33" width="150" height="19.67" as="geometry" />
        </mxCell>
        <mxCell id="IPL-HtfXfqppJHySGtCR-37" value="&lt;h1 style=&quot;margin-top: 0px; line-height: 30%;&quot;&gt;&lt;font color=&quot;#0066cc&quot;&gt;&lt;span style=&quot;font-size: 10px; font-weight: 400;&quot;&gt;Application Secrets from KV, referred by Function App and Databricks&lt;/span&gt;&lt;/font&gt;&lt;/h1&gt;" style="text;html=1;whiteSpace=wrap;overflow=hidden;rounded=0;" vertex="1" parent="1">
          <mxGeometry x="285.46" y="269" width="119.07" height="50" as="geometry" />
        </mxCell>
        <mxCell id="IPL-HtfXfqppJHySGtCR-38" value="&lt;h1 style=&quot;margin-top: 0px; line-height: 0%;&quot;&gt;&lt;font color=&quot;#0066cc&quot;&gt;&lt;span style=&quot;font-size: 10px; font-weight: 400;&quot;&gt;1. Persists the WorkVivo data.&lt;/span&gt;&lt;/font&gt;&lt;/h1&gt;&lt;div style=&quot;line-height: 103%;&quot;&gt;&lt;font color=&quot;#0066cc&quot;&gt;&lt;span style=&quot;font-size: 10px; font-weight: 400;&quot;&gt;2. Scheduled jobs to fetch linked/dependent data (like Seen, Reaction, Campaign, etc.,) from WorkVivo.&lt;/span&gt;&lt;/font&gt;&lt;/div&gt;&lt;div style=&quot;line-height: 70%;&quot;&gt;&lt;font color=&quot;#0066cc&quot;&gt;&lt;span style=&quot;font-size: 10px; font-weight: 400;&quot;&gt;3. Scheduled Jobs to archive inactive groups and its members.&lt;/span&gt;&lt;/font&gt;&lt;/div&gt;" style="text;html=1;whiteSpace=wrap;overflow=hidden;rounded=0;" vertex="1" parent="1">
          <mxGeometry x="560" y="368.33" width="220" height="121.67" as="geometry" />
        </mxCell>
        <mxCell id="IPL-HtfXfqppJHySGtCR-39" value="" style="endArrow=none;dashed=1;html=1;rounded=0;strokeColor=#B0B0B0;" edge="1" parent="1">
          <mxGeometry width="50" height="50" relative="1" as="geometry">
            <mxPoint x="220" y="541" as="sourcePoint" />
            <mxPoint x="220" as="targetPoint" />
          </mxGeometry>
        </mxCell>
        <mxCell id="IPL-HtfXfqppJHySGtCR-40" value="" style="endArrow=none;dashed=1;html=1;rounded=0;strokeColor=#B0B0B0;" edge="1" parent="1">
          <mxGeometry width="50" height="50" relative="1" as="geometry">
            <mxPoint x="920" y="540" as="sourcePoint" />
            <mxPoint x="920" as="targetPoint" />
          </mxGeometry>
        </mxCell>
        <mxCell id="IPL-HtfXfqppJHySGtCR-41" value="Zoom" style="text;html=1;align=center;verticalAlign=middle;whiteSpace=wrap;rounded=1;fillColor=#ffe6cc;strokeColor=#d79b00;fontStyle=1;shadow=1;glass=1;fontColor=#3333FF;" vertex="1" parent="1">
          <mxGeometry x="48.049999999999976" y="10" width="60" height="30" as="geometry" />
        </mxCell>
        <mxCell id="IPL-HtfXfqppJHySGtCR-42" value="Pharma Azure Cloud" style="text;html=1;align=center;verticalAlign=middle;whiteSpace=wrap;rounded=1;fillColor=#ffe6cc;strokeColor=#d79b00;fontStyle=1;glass=1;shadow=1;fontColor=#3333FF;" vertex="1" parent="1">
          <mxGeometry x="497.51" y="10" width="124.99" height="30" as="geometry" />
        </mxCell>
        <mxCell id="IPL-HtfXfqppJHySGtCR-43" value="Aware" style="text;html=1;align=center;verticalAlign=middle;whiteSpace=wrap;rounded=1;fillColor=#ffe6cc;strokeColor=#d79b00;fontStyle=1;glass=1;shadow=1;fontColor=#3333FF;" vertex="1" parent="1">
          <mxGeometry x="988" y="10" width="60" height="30" as="geometry" />
        </mxCell>
      </root>
    </mxGraphModel>
  </diagram>
</mxfile>
